<?xml version="1.0" encoding="UTF-8" standalone="no"?>
<!DOCTYPE svg PUBLIC "-//W3C//DTD SVG 1.1//EN"
 "http://www.w3.org/Graphics/SVG/1.1/DTD/svg11.dtd">
<!-- Generated by graphviz version 2.42.3 (20191010.1750)
 -->
<!-- Title: controllers_diagram Pages: 1 -->
<svg width="391pt" height="405pt"
 viewBox="0.00 0.00 391.38 405.00" xmlns="http://www.w3.org/2000/svg" xmlns:xlink="http://www.w3.org/1999/xlink">
<g id="graph0" class="graph" transform="scale(1 1) rotate(0) translate(4 401)">
<title>controllers_diagram</title>
<polygon fill="transparent" stroke="transparent" points="-4,4 -4,-401 387.38,-401 387.38,4 -4,4"/>
<!-- _diagram_info -->
<g id="node1" class="node">
<title>_diagram_info</title>
<text text-anchor="start" x="184" y="-58.6" font-family="Times,serif" font-size="13.00">Controllers diagram</text>
<text text-anchor="start" x="184" y="-45.6" font-family="Times,serif" font-size="13.00">Date: Apr 09 2020 &#45; 20:21</text>
<text text-anchor="start" x="184" y="-32.6" font-family="Times,serif" font-size="13.00">Migration version: 20200410000459</text>
<text text-anchor="start" x="184" y="-19.6" font-family="Times,serif" font-size="13.00">Generated by RailRoady 1.5.3</text>
<text text-anchor="start" x="184" y="-6.6" font-family="Times,serif" font-size="13.00">http://railroady.prestonlee.com</text>
</g>
<!-- PetsController -->
<g id="node2" class="node">
<title>PetsController</title>
<path fill="none" stroke="black" d="M60,-64.5C60,-64.5 132.88,-64.5 132.88,-64.5 138.88,-64.5 144.88,-70.5 144.88,-76.5 144.88,-76.5 144.88,-254.5 144.88,-254.5 144.88,-260.5 138.88,-266.5 132.88,-266.5 132.88,-266.5 60,-266.5 60,-266.5 54,-266.5 48,-260.5 48,-254.5 48,-254.5 48,-76.5 48,-76.5 48,-70.5 54,-64.5 60,-64.5"/>
<text text-anchor="middle" x="96.44" y="-251.3" font-family="Times,serif" font-size="14.00">PetsController</text>
<polyline fill="none" stroke="black" points="48,-244.5 144.88,-244.5 "/>
<text text-anchor="start" x="56" y="-229.3" font-family="Times,serif" font-size="14.00">create</text>
<text text-anchor="start" x="56" y="-215.3" font-family="Times,serif" font-size="14.00">destroy</text>
<text text-anchor="start" x="56" y="-201.3" font-family="Times,serif" font-size="14.00">edit</text>
<text text-anchor="start" x="56" y="-187.3" font-family="Times,serif" font-size="14.00">index</text>
<text text-anchor="start" x="56" y="-173.3" font-family="Times,serif" font-size="14.00">new</text>
<text text-anchor="start" x="56" y="-159.3" font-family="Times,serif" font-size="14.00">show</text>
<text text-anchor="start" x="56" y="-145.3" font-family="Times,serif" font-size="14.00">update</text>
<polyline fill="none" stroke="black" points="48,-138.5 144.88,-138.5 "/>
<polyline fill="none" stroke="black" points="48,-114.5 144.88,-114.5 "/>
<text text-anchor="start" x="56" y="-99.3" font-family="Times,serif" font-size="14.00">_layout</text>
<text text-anchor="start" x="56" y="-85.3" font-family="Times,serif" font-size="14.00">pet_params</text>
<text text-anchor="start" x="56" y="-71.3" font-family="Times,serif" font-size="14.00">set_pet</text>
</g>
<!-- ApplicationController -->
<g id="node3" class="node">
<title>ApplicationController</title>
<path fill="none" stroke="black" d="M12,-304.5C12,-304.5 127.64,-304.5 127.64,-304.5 133.64,-304.5 139.64,-310.5 139.64,-316.5 139.64,-316.5 139.64,-384.5 139.64,-384.5 139.64,-390.5 133.64,-396.5 127.64,-396.5 127.64,-396.5 12,-396.5 12,-396.5 6,-396.5 0,-390.5 0,-384.5 0,-384.5 0,-316.5 0,-316.5 0,-310.5 6,-304.5 12,-304.5"/>
<text text-anchor="middle" x="69.82" y="-381.3" font-family="Times,serif" font-size="14.00">ApplicationController</text>
<polyline fill="none" stroke="black" points="0,-374.5 139.64,-374.5 "/>
<polyline fill="none" stroke="black" points="0,-350.5 139.64,-350.5 "/>
<polyline fill="none" stroke="black" points="0,-326.5 139.64,-326.5 "/>
<text text-anchor="start" x="8" y="-311.3" font-family="Times,serif" font-size="14.00">_layout</text>
</g>
<!-- PeopleController -->
<g id="node4" class="node">
<title>PeopleController</title>
<path fill="none" stroke="black" d="M188,-112.5C188,-112.5 275.65,-112.5 275.65,-112.5 281.65,-112.5 287.65,-118.5 287.65,-124.5 287.65,-124.5 287.65,-302.5 287.65,-302.5 287.65,-308.5 281.65,-314.5 275.65,-314.5 275.65,-314.5 188,-314.5 188,-314.5 182,-314.5 176,-308.5 176,-302.5 176,-302.5 176,-124.5 176,-124.5 176,-118.5 182,-112.5 188,-112.5"/>
<text text-anchor="middle" x="231.82" y="-299.3" font-family="Times,serif" font-size="14.00">PeopleController</text>
<polyline fill="none" stroke="black" points="176,-292.5 287.65,-292.5 "/>
<text text-anchor="start" x="184" y="-277.3" font-family="Times,serif" font-size="14.00">create</text>
<text text-anchor="start" x="184" y="-263.3" font-family="Times,serif" font-size="14.00">destroy</text>
<text text-anchor="start" x="184" y="-249.3" font-family="Times,serif" font-size="14.00">edit</text>
<text text-anchor="start" x="184" y="-235.3" font-family="Times,serif" font-size="14.00">index</text>
<text text-anchor="start" x="184" y="-221.3" font-family="Times,serif" font-size="14.00">new</text>
<text text-anchor="start" x="184" y="-207.3" font-family="Times,serif" font-size="14.00">show</text>
<text text-anchor="start" x="184" y="-193.3" font-family="Times,serif" font-size="14.00">update</text>
<polyline fill="none" stroke="black" points="176,-186.5 287.65,-186.5 "/>
<polyline fill="none" stroke="black" points="176,-162.5 287.65,-162.5 "/>
<text text-anchor="start" x="184" y="-147.3" font-family="Times,serif" font-size="14.00">_layout</text>
<text text-anchor="start" x="184" y="-133.3" font-family="Times,serif" font-size="14.00">person_params</text>
<text text-anchor="start" x="184" y="-119.3" font-family="Times,serif" font-size="14.00">set_person</text>
</g>
</g>
</svg>
