<?xml version="1.0" encoding="UTF-8" standalone="no"?>
<!DOCTYPE svg PUBLIC "-//W3C//DTD SVG 1.1//EN"
 "http://www.w3.org/Graphics/SVG/1.1/DTD/svg11.dtd">
<!-- Generated by graphviz version 2.42.3 (20191010.1750)
 -->
<!-- Title: models_diagram Pages: 1 -->
<svg width="539pt" height="260pt"
 viewBox="0.00 0.00 539.08 260.00" xmlns="http://www.w3.org/2000/svg" xmlns:xlink="http://www.w3.org/1999/xlink">
<g id="graph0" class="graph" transform="scale(1 1) rotate(0) translate(4 256)">
<title>models_diagram</title>
<polygon fill="transparent" stroke="transparent" points="-4,4 -4,-256 535.08,-256 535.08,4 -4,4"/>
<!-- _diagram_info -->
<g id="node1" class="node">
<title>_diagram_info</title>
<text text-anchor="start" x="8" y="-223.6" font-family="Times,serif" font-size="13.00">Models diagram</text>
<text text-anchor="start" x="8" y="-210.6" font-family="Times,serif" font-size="13.00">Date: Apr 09 2020 &#45; 20:21</text>
<text text-anchor="start" x="8" y="-197.6" font-family="Times,serif" font-size="13.00">Migration version: 20200410000459</text>
<text text-anchor="start" x="8" y="-184.6" font-family="Times,serif" font-size="13.00">Generated by RailRoady 1.5.3</text>
<text text-anchor="start" x="8" y="-171.6" font-family="Times,serif" font-size="13.00">http://railroady.prestonlee.com</text>
</g>
<!-- Pet -->
<g id="node2" class="node">
<title>Pet</title>
<path fill="none" stroke="black" d="M237.18,-0.5C237.18,-0.5 346.19,-0.5 346.19,-0.5 352.19,-0.5 358.19,-6.5 358.19,-12.5 358.19,-12.5 358.19,-102.5 358.19,-102.5 358.19,-108.5 352.19,-114.5 346.19,-114.5 346.19,-114.5 237.18,-114.5 237.18,-114.5 231.18,-114.5 225.18,-108.5 225.18,-102.5 225.18,-102.5 225.18,-12.5 225.18,-12.5 225.18,-6.5 231.18,-0.5 237.18,-0.5"/>
<text text-anchor="middle" x="291.69" y="-99.3" font-family="Times,serif" font-size="14.00">Pet</text>
<polyline fill="none" stroke="black" points="225.18,-92.5 358.19,-92.5 "/>
<text text-anchor="start" x="233.18" y="-77.3" font-family="Times,serif" font-size="14.00">id :integer</text>
<text text-anchor="start" x="233.18" y="-63.3" font-family="Times,serif" font-size="14.00">name :varchar</text>
<text text-anchor="start" x="233.18" y="-49.3" font-family="Times,serif" font-size="14.00">breed :varchar</text>
<text text-anchor="start" x="233.18" y="-35.3" font-family="Times,serif" font-size="14.00">person_id :integer</text>
<text text-anchor="start" x="233.18" y="-21.3" font-family="Times,serif" font-size="14.00">created_at :datetime</text>
<text text-anchor="start" x="233.18" y="-7.3" font-family="Times,serif" font-size="14.00">updated_at :datetime</text>
</g>
<!-- Person -->
<g id="node3" class="node">
<title>Person</title>
<path fill="none" stroke="black" d="M237.18,-151.5C237.18,-151.5 346.19,-151.5 346.19,-151.5 352.19,-151.5 358.19,-157.5 358.19,-163.5 358.19,-163.5 358.19,-239.5 358.19,-239.5 358.19,-245.5 352.19,-251.5 346.19,-251.5 346.19,-251.5 237.18,-251.5 237.18,-251.5 231.18,-251.5 225.18,-245.5 225.18,-239.5 225.18,-239.5 225.18,-163.5 225.18,-163.5 225.18,-157.5 231.18,-151.5 237.18,-151.5"/>
<text text-anchor="middle" x="291.69" y="-236.3" font-family="Times,serif" font-size="14.00">Person</text>
<polyline fill="none" stroke="black" points="225.18,-229.5 358.19,-229.5 "/>
<text text-anchor="start" x="233.18" y="-214.3" font-family="Times,serif" font-size="14.00">id :integer</text>
<text text-anchor="start" x="233.18" y="-200.3" font-family="Times,serif" font-size="14.00">first_name :varchar</text>
<text text-anchor="start" x="233.18" y="-186.3" font-family="Times,serif" font-size="14.00">last_name :varchar</text>
<text text-anchor="start" x="233.18" y="-172.3" font-family="Times,serif" font-size="14.00">created_at :datetime</text>
<text text-anchor="start" x="233.18" y="-158.3" font-family="Times,serif" font-size="14.00">updated_at :datetime</text>
</g>
<!-- Person&#45;&gt;Pet -->
<g id="edge1" class="edge">
<title>Person&#45;&gt;Pet</title>
<path fill="none" stroke="#2d7c66" d="M291.69,-143.17C291.69,-137.21 291.69,-131.13 291.69,-125.08"/>
<ellipse fill="none" stroke="#2d7c66" cx="291.69" cy="-147.23" rx="4" ry="4"/>
<polygon fill="#2d7c66" stroke="#2d7c66" points="291.69,-124.98 296.19,-114.98 291.69,-119.98 291.69,-114.98 291.69,-114.98 291.69,-114.98 291.69,-119.98 287.19,-114.98 291.69,-124.98 291.69,-124.98"/>
</g>
<!-- ApplicationRecord -->
<g id="node4" class="node">
<title>ApplicationRecord</title>
<ellipse fill="none" stroke="black" cx="453.69" cy="-201.5" rx="77.29" ry="18"/>
<text text-anchor="middle" x="453.69" y="-197.3" font-family="Times,serif" font-size="14.00">ApplicationRecord</text>
</g>
</g>
</svg>
