<?xml version="1.0" encoding="UTF-8" standalone="no"?>
<!DOCTYPE svg PUBLIC "-//W3C//DTD SVG 1.1//EN"
 "http://www.w3.org/Graphics/SVG/1.1/DTD/svg11.dtd">
<!-- Generated by graphviz version 2.42.3 (20191010.1750)
 -->
<!-- Title: models_diagram Pages: 1 -->
<svg width="475pt" height="153pt"
 viewBox="0.00 0.00 475.08 153.00" xmlns="http://www.w3.org/2000/svg" xmlns:xlink="http://www.w3.org/1999/xlink">
<g id="graph0" class="graph" transform="scale(1 1) rotate(0) translate(4 149)">
<title>models_diagram</title>
<polygon fill="transparent" stroke="transparent" points="-4,4 -4,-149 471.08,-149 471.08,4 -4,4"/>
<!-- _diagram_info -->
<g id="node1" class="node">
<title>_diagram_info</title>
<text text-anchor="start" x="8" y="-130.6" font-family="Times,serif" font-size="13.00">Models diagram</text>
<text text-anchor="start" x="8" y="-117.6" font-family="Times,serif" font-size="13.00">Date: Apr 09 2020 &#45; 20:21</text>
<text text-anchor="start" x="8" y="-104.6" font-family="Times,serif" font-size="13.00">Migration version: 20200410000459</text>
<text text-anchor="start" x="8" y="-91.6" font-family="Times,serif" font-size="13.00">Generated by RailRoady 1.5.3</text>
<text text-anchor="start" x="8" y="-78.6" font-family="Times,serif" font-size="13.00">http://railroady.prestonlee.com</text>
</g>
<!-- Pet -->
<g id="node2" class="node">
<title>Pet</title>
<ellipse fill="none" stroke="black" cx="259.69" cy="-18" rx="27" ry="18"/>
<text text-anchor="middle" x="259.69" y="-13.8" font-family="Times,serif" font-size="14.00">Pet</text>
</g>
<!-- Person -->
<g id="node3" class="node">
<title>Person</title>
<ellipse fill="none" stroke="black" cx="259.69" cy="-108.5" rx="34.36" ry="18"/>
<text text-anchor="middle" x="259.69" y="-104.3" font-family="Times,serif" font-size="14.00">Person</text>
</g>
<!-- Person&#45;&gt;Pet -->
<g id="edge1" class="edge">
<title>Person&#45;&gt;Pet</title>
<path fill="none" stroke="#85fe14" d="M259.69,-82.19C259.69,-70.97 259.69,-57.75 259.69,-46.31"/>
<ellipse fill="none" stroke="#85fe14" cx="259.69" cy="-86.44" rx="4" ry="4"/>
<polygon fill="#85fe14" stroke="#85fe14" points="259.69,-46.01 264.19,-36.01 259.69,-41.01 259.69,-36.01 259.69,-36.01 259.69,-36.01 259.69,-41.01 255.19,-36.01 259.69,-46.01 259.69,-46.01"/>
</g>
<!-- ApplicationRecord -->
<g id="node4" class="node">
<title>ApplicationRecord</title>
<ellipse fill="none" stroke="black" cx="389.69" cy="-108.5" rx="77.29" ry="18"/>
<text text-anchor="middle" x="389.69" y="-104.3" font-family="Times,serif" font-size="14.00">ApplicationRecord</text>
</g>
</g>
</svg>
